<mxfile host="" modified="2021-02-14T11:44:21.234Z" agent="5.0 (Macintosh; Intel Mac OS X 10_16_0) AppleWebKit/537.36 (KHTML, like Gecko) Chrome/84.0.4147.105 Safari/537.36" version="13.7.9" etag="edzwAa_BzrEClGBnp9Cs" type="embed"><diagram id="IALPkiFgjzce_qqUPBBC" name="Page-1"><mxGraphModel dx="904" dy="605" grid="1" gridSize="10" guides="1" tooltips="1" connect="1" arrows="1" fold="1" page="1" pageScale="1" pageWidth="850" pageHeight="1100" math="0" shadow="0"><root><mxCell id="0"/><mxCell id="1" parent="0"/><mxCell id="2" value="Admin Server" style="ellipse;whiteSpace=wrap;html=1;" vertex="1" parent="1"><mxGeometry x="280" y="10" width="310" height="140" as="geometry"/></mxCell><mxCell id="3" value="Website server" style="ellipse;whiteSpace=wrap;html=1;" vertex="1" parent="1"><mxGeometry y="130" width="280" height="420" as="geometry"/></mxCell><mxCell id="5" value="online.az" style="ellipse;whiteSpace=wrap;html=1;" vertex="1" parent="1"><mxGeometry x="110" y="180" width="200" height="80" as="geometry"/></mxCell><mxCell id="6" value="test1.az" style="ellipse;whiteSpace=wrap;html=1;" vertex="1" parent="1"><mxGeometry x="110" y="230" width="210" height="80" as="geometry"/></mxCell><mxCell id="7" value="company1.az" style="ellipse;whiteSpace=wrap;html=1;" vertex="1" parent="1"><mxGeometry x="105" y="360" width="210" height="80" as="geometry"/></mxCell><mxCell id="8" value="company2.az" style="ellipse;whiteSpace=wrap;html=1;" vertex="1" parent="1"><mxGeometry x="105" y="410" width="210" height="80" as="geometry"/></mxCell><mxCell id="9" value="" style="curved=1;endArrow=classic;html=1;" edge="1" parent="1" source="5"><mxGeometry width="50" height="50" relative="1" as="geometry"><mxPoint x="240" y="110" as="sourcePoint"/><mxPoint x="290" y="60" as="targetPoint"/><Array as="points"><mxPoint x="290" y="110"/><mxPoint x="240" y="60"/></Array></mxGeometry></mxCell><mxCell id="10" value="" style="curved=1;endArrow=classic;html=1;" edge="1" parent="1" source="6"><mxGeometry width="50" height="50" relative="1" as="geometry"><mxPoint x="290" y="190" as="sourcePoint"/><mxPoint x="340" y="140" as="targetPoint"/><Array as="points"><mxPoint x="340" y="190"/><mxPoint x="290" y="140"/></Array></mxGeometry></mxCell><mxCell id="12" value="" style="curved=1;endArrow=classic;html=1;" edge="1" parent="1" source="7" target="2"><mxGeometry width="50" height="50" relative="1" as="geometry"><mxPoint x="380" y="310" as="sourcePoint"/><mxPoint x="430" y="260" as="targetPoint"/><Array as="points"><mxPoint x="430" y="310"/><mxPoint x="370" y="280"/><mxPoint x="380" y="260"/></Array></mxGeometry></mxCell><mxCell id="13" value="" style="curved=1;endArrow=classic;html=1;exitX=1;exitY=0.5;exitDx=0;exitDy=0;entryX=0.577;entryY=1.007;entryDx=0;entryDy=0;entryPerimeter=0;" edge="1" parent="1" source="8" target="2"><mxGeometry width="50" height="50" relative="1" as="geometry"><mxPoint x="349.95000000000005" y="440" as="sourcePoint"/><mxPoint x="459.8118920045499" y="159.3428988941996" as="targetPoint"/><Array as="points"><mxPoint x="476" y="320"/><mxPoint x="460" y="280"/></Array></mxGeometry></mxCell><mxCell id="14" value="Admin Panel" style="ellipse;whiteSpace=wrap;html=1;" vertex="1" parent="1"><mxGeometry x="480" y="40" width="160" height="80" as="geometry"/></mxCell><mxCell id="17" value="Unit tests&lt;br&gt;Integration tests" style="rounded=0;whiteSpace=wrap;html=1;" vertex="1" parent="1"><mxGeometry x="590" y="160" width="120" height="60" as="geometry"/></mxCell></root></mxGraphModel></diagram></mxfile>